<svg viewBox="0 0 31 60" xmlns="http://www.w3.org/2000/svg">
<path d="M30.9062 41.5938C30.9062 42.6191 30.7354 43.6689 30.3936 44.7432C30.0518 45.8174 29.6611 46.8428 29.2217 47.8193C28.6357 49.2354 27.9277 50.627 27.0977 51.9941C26.2676 53.3125 25.3154 54.5088 24.2412 55.583C23.167 56.6084 21.9463 57.4385 20.5791 58.0732C19.2119 58.708 17.6738 59.0254 15.9648 59.0254C12.9375 59.0254 10.4229 58.2686 8.4209 56.7549C6.41895 55.2412 4.83203 53.3369 3.66016 51.042C2.48828 48.7471 1.6582 46.2324 1.16992 43.498C0.730469 40.7637 0.510742 38.1758 0.510742 35.7344C0.510742 33.9277 0.583984 31.8037 0.730469 29.3623C0.876953 26.8721 1.14551 24.3086 1.53613 21.6719C1.97559 19.0352 2.58594 16.4229 3.36719 13.835C4.19727 11.2471 5.24707 8.95215 6.5166 6.9502C7.78613 4.89941 9.32422 3.23926 11.1309 1.96973C12.9863 0.700195 15.1836 0.0654297 17.7227 0.0654297C18.2598 0.0654297 19.041 0.163086 20.0664 0.358398C21.0918 0.553711 22.0928 0.84668 23.0693 1.2373C24.0947 1.5791 24.9736 2.06738 25.7061 2.70215C26.4873 3.28809 26.8779 3.97168 26.8779 4.75293C26.8779 5.48535 26.5361 6.04688 25.8525 6.4375C25.2178 6.82812 24.4365 7.12109 23.5088 7.31641C22.6299 7.46289 21.7021 7.56055 20.7256 7.60938C19.7979 7.60938 19.041 7.60938 18.4551 7.60938H17.1367C15.7695 8.83008 14.6465 10.6367 13.7676 13.0293C12.8887 15.373 12.2051 17.8877 11.7168 20.5732C11.2285 23.2588 10.8867 25.9199 10.6914 28.5566C10.4961 31.1445 10.3984 33.2686 10.3984 34.9287C10.3984 37.2725 10.5693 39.5918 10.9111 41.8867C11.3018 44.1328 12.0586 46.2568 13.1816 48.2588C13.4258 48.6982 13.7676 49.2109 14.207 49.7969C14.6953 50.334 15.2324 50.6025 15.8184 50.6025C16.2578 50.6025 16.6973 50.2363 17.1367 49.5039C17.625 48.7715 18.0645 47.917 18.4551 46.9404C18.8457 45.9639 19.1631 45.0117 19.4072 44.084C19.6514 43.1562 19.8223 42.4727 19.9199 42.0332C19.9688 41.8379 19.9932 41.6182 19.9932 41.374C19.9932 41.1299 19.9932 40.8857 19.9932 40.6416C19.9932 40.2021 19.9932 39.7871 19.9932 39.3965C20.042 38.957 20.1152 38.6152 20.2129 38.3711C20.5547 37.541 20.9941 36.9795 21.5312 36.6865C22.1172 36.3936 22.8252 36.2471 23.6553 36.2471C24.3877 36.2471 25.1689 36.3447 25.999 36.54C26.8291 36.7354 27.6104 37.0527 28.3428 37.4922C29.0752 37.9316 29.6855 38.4932 30.1738 39.1768C30.6621 39.8604 30.9062 40.666 30.9062 41.5938Z"/>
</svg>
