<svg viewBox="0 0 43 102" xmlns="http://www.w3.org/2000/svg">
<path d="M42.0361 2.39062C42.0361 3.85547 41.6455 5.00293 40.8643 5.83301C40.083 6.66309 39.1064 7.27344 37.9346 7.66406C36.7627 8.05469 35.5176 8.29883 34.1992 8.39648C32.8809 8.49414 31.6846 8.54297 30.6104 8.54297C28.4619 8.54297 26.3135 8.51855 24.165 8.46973C22.0166 8.4209 19.8682 8.39648 17.7197 8.39648C16.6943 8.39648 15.6689 8.39648 14.6436 8.39648C13.6182 8.39648 12.5928 8.44531 11.5674 8.54297C11.1768 9.37305 10.9326 10.2275 10.835 11.1064C10.7373 11.9365 10.6885 12.791 10.6885 13.6699C10.6885 18.2598 10.8594 22.8008 11.2012 27.293C11.543 31.7852 11.9092 36.3262 12.2998 40.916C15.2295 40.6719 18.1592 40.3789 21.0889 40.0371C24.0186 39.6953 26.9971 39.3047 30.0244 38.8652C30.415 38.8652 30.7812 38.8408 31.123 38.792C31.4648 38.7432 31.8311 38.7188 32.2217 38.7188C34.1748 38.7188 35.1514 39.793 35.1514 41.9414C35.1514 42.5273 35.0781 43.1133 34.9316 43.6992C34.834 44.2852 34.6631 44.8711 34.4189 45.457C34.0771 46.4336 33.5156 47.166 32.7344 47.6543C31.9531 48.0938 31.0742 48.4111 30.0977 48.6064C29.1211 48.7529 28.0957 48.8262 27.0215 48.8262C25.9961 48.7773 25.0928 48.7773 24.3115 48.8262L12.8857 49.2656C13.1787 53.9043 13.4961 58.4941 13.8379 63.0352C14.1797 67.5762 14.5459 72.166 14.9365 76.8047C15.3271 80.3203 15.6445 83.8604 15.8887 87.4248C16.1816 90.9893 16.5967 94.5293 17.1338 98.0449V99.2168C17.1338 100.34 16.8164 101.097 16.1816 101.487C15.5469 101.829 14.7412 102 13.7646 102C11.958 102 10.249 101.707 8.6377 101.121C7.56348 100.73 6.75781 100.267 6.2207 99.7295C5.68359 99.1436 5.29297 98.5088 5.04883 97.8252C4.85352 97.0928 4.73145 96.3115 4.68262 95.4814C4.63379 94.6514 4.58496 93.748 4.53613 92.7715C4.09668 85.3984 3.6084 78.0742 3.07129 70.7988C2.53418 63.4746 2.0459 56.1016 1.60645 48.6797C1.31348 43.2109 0.996094 37.791 0.654297 32.4199C0.3125 27.0488 0.141602 21.6289 0.141602 16.1602C0.141602 13.2793 0.3125 10.8379 0.654297 8.83594C1.04492 6.78516 1.75293 5.125 2.77832 3.85547C3.80371 2.58594 5.26855 1.6582 7.17285 1.07227C9.07715 0.486328 11.5674 0.193359 14.6436 0.193359C17.8174 0.193359 20.9668 0.217773 24.0918 0.266602C27.2168 0.31543 30.3662 0.339844 33.54 0.339844C34.6631 0.339844 35.7373 0.31543 36.7627 0.266602C37.7881 0.168945 38.8135 0.242188 39.8389 0.486328C40.4248 0.583984 40.9375 0.754883 41.377 0.999023C41.8164 1.19434 42.0361 1.6582 42.0361 2.39062Z"/>
</svg>
