<svg xmlns="http://www.w3.org/2000/svg" viewBox="0 0 303 129">
  <path d="M 34 6 C 20 5 5 2 4 10 C 1 63 3 110 17 102 L 11 48 C 20 45 31 49 31 42 L 31 0 L 49 -3 C 53 38 41 109 58 109 L 42 97 L 44 33 L 68 36 C 71 53 61 76 67 100 C 75 106 74 91 81 80 C 85 65 87 55 88 49 C 90 66 85 103 90 103 L 91 38 L 101 34 C 114 74 123 79 129 102 L 103 104 C 117 85 122 59 124 36 L 129 11 L 149 10 C 142 73 146 104 148 104 L 126 54 L 156 50 L 164 42 C 176 47 175 42 173 34 C 164 28 163 40 164 42 L 167 53 C 167 82 170 103 172 103 V 44 L 202 44 L 202 50 C 185 43 185 80 188 91 C 197 111 206 98 203 87 L 197 -4 L 222 -7 C 215 29 217 90 220 109 L 207 86 C 215 73 229 62 239 43 L 243 43 L 221 78 L 226 99 Q 258 116 224 82 L 199 35 L 275 35 L 274 50 Q 264 43 255 52 C 247 67 275 80 275 89 C 279 107 264 102 255 96 L -1 111 L 1 127 L 301 116" stroke="#000" stroke-width="1" fill="none"/>
</svg>