<svg viewBox="0 0 14 73" xmlns="http://www.w3.org/2000/svg">
<path d="M11.0889 11.4033C11.0889 12.2334 10.8936 12.8438 10.5029 13.2344C10.1611 13.5762 9.50195 13.7471 8.52539 13.7471C8.08594 13.7471 7.40234 13.6982 6.47461 13.6006C5.54688 13.4541 4.59473 13.2588 3.61816 13.0146C2.69043 12.7705 1.86035 12.4287 1.12793 11.9893C0.444336 11.5498 0.102539 11.0127 0.102539 10.3779C0.102539 10.1826 0.175781 9.64551 0.322266 8.7666C0.46875 7.83887 0.639648 6.8623 0.834961 5.83691C1.0791 4.81152 1.27441 3.88379 1.4209 3.05371C1.61621 2.22363 1.7627 1.75977 1.86035 1.66211V1.73535C2.10449 1.34473 2.39746 1.10059 2.73926 1.00293C3.08105 0.905273 3.42285 0.856445 3.76465 0.856445C4.2041 0.856445 4.76562 0.929688 5.44922 1.07617C6.18164 1.17383 6.88965 1.34473 7.57324 1.58887C8.30566 1.78418 8.96484 2.05273 9.55078 2.39453C10.1367 2.73633 10.5029 3.10254 10.6494 3.49316C10.7959 3.88379 10.8691 4.4209 10.8691 5.10449C10.918 5.73926 10.918 6.3252 10.8691 6.8623C10.8691 7.05762 10.8447 7.30176 10.7959 7.59473C10.7959 7.83887 10.7959 8.03418 10.7959 8.18066C10.7959 8.4248 10.7959 8.66895 10.7959 8.91309C10.8447 9.15723 10.8936 9.40137 10.9424 9.64551C10.9912 9.88965 11.0156 10.1582 11.0156 10.4512C11.0645 10.7441 11.0889 11.0615 11.0889 11.4033ZM13.7988 69.7773C13.7988 70.9004 13.5303 71.7061 12.9932 72.1943C12.5049 72.6338 11.6992 72.8535 10.5762 72.8535C9.99023 72.8535 9.33105 72.7803 8.59863 72.6338C7.91504 72.4873 7.23145 72.292 6.54785 72.0479C5.86426 71.7549 5.22949 71.4131 4.64355 71.0225C4.05762 70.6318 3.61816 70.1924 3.3252 69.7041C3.12988 69.4111 2.95898 68.5078 2.8125 66.9941C2.66602 65.4805 2.54395 63.6006 2.44629 61.3545C2.39746 59.1084 2.32422 56.5938 2.22656 53.8105C2.17773 51.0273 2.12891 48.2197 2.08008 45.3877C2.08008 42.5557 2.08008 39.7969 2.08008 37.1113C2.08008 34.4258 2.08008 32.082 2.08008 30.0801V24.4404C2.08008 23.9521 2.08008 23.4639 2.08008 22.9756C2.12891 22.4873 2.22656 22.0723 2.37305 21.7305C2.56836 21.3398 2.83691 21.0225 3.17871 20.7783C3.56934 20.5342 4.10645 20.4121 4.79004 20.4121C6.93848 20.4121 8.50098 21.0225 9.47754 22.2432C10.5029 23.415 11.1377 25.002 11.3818 27.0039C11.626 29.9824 11.7969 32.9609 11.8945 35.9395C12.041 38.8691 12.1631 41.8477 12.2607 44.875C12.3584 47.6094 12.4316 50.3193 12.4805 53.0049C12.5781 55.6416 12.749 58.2783 12.9932 60.915C13.042 61.4521 13.0908 61.9648 13.1396 62.4531C13.1885 62.9414 13.2617 63.4297 13.3594 63.918C13.457 64.8945 13.5547 65.8711 13.6523 66.8477C13.75 67.7754 13.7988 68.752 13.7988 69.7773Z"/>
</svg>
