<svg width="37" height="107" viewBox="0 0 37 107" fill="none" xmlns="http://www.w3.org/2000/svg">
<path d="M36.8994 103.099C36.8994 103.636 36.6064 104.124 36.0205 104.563C35.4346 105.003 34.751 105.369 33.9697 105.662C33.2373 105.955 32.4805 106.175 31.6992 106.321C30.918 106.517 30.3076 106.614 29.8682 106.614C29.0381 106.614 28.2812 106.443 27.5977 106.102C26.9141 105.809 26.2793 105.418 25.6934 104.93C25.1074 104.441 24.5459 103.904 24.0088 103.318C23.5205 102.732 23.0566 102.146 22.6172 101.561C20.9082 99.4609 19.1504 97.1172 17.3438 94.5293C15.5371 91.9414 13.9258 89.4756 12.5098 87.1318C12.5098 87.3271 12.5342 87.5713 12.583 87.8643C12.6318 88.1572 12.6562 88.4014 12.6562 88.5967C12.7539 89.6221 12.8271 90.6475 12.876 91.6729C12.9736 92.6494 13.0957 93.6504 13.2422 94.6758C13.291 95.2617 13.3398 95.8477 13.3887 96.4336C13.4863 96.9707 13.584 97.5566 13.6816 98.1914C13.7793 98.9727 13.877 99.7539 13.9746 100.535C14.0723 101.316 14.1211 102.122 14.1211 102.952C14.1211 103.978 13.8281 104.661 13.2422 105.003C12.6562 105.394 11.875 105.589 10.8984 105.589C10.2148 105.589 9.48242 105.54 8.70117 105.442C7.91992 105.345 7.16309 105.149 6.43066 104.856C5.69824 104.563 5.03906 104.173 4.45312 103.685C3.86719 103.196 3.42773 102.562 3.13477 101.78C2.98828 101.194 2.8418 100.096 2.69531 98.4844C2.54883 96.873 2.42676 95.0908 2.3291 93.1377C2.23145 91.1357 2.13379 89.1338 2.03613 87.1318C1.9873 85.1299 1.93848 83.4697 1.88965 82.1514C1.88965 81.8584 1.86523 81.6143 1.81641 81.4189C1.81641 81.2236 1.81641 81.0283 1.81641 80.833C1.42578 80.4912 1.08398 80.0762 0.791016 79.5879C0.498047 79.0996 0.351562 78.6357 0.351562 78.1963C0.351562 77.5615 0.473633 77 0.717773 76.5117C0.961914 76.0234 1.23047 75.5596 1.52344 75.1201C1.23047 69.1143 1.08398 63.1328 1.08398 57.1758C1.08398 52.2441 1.13281 47.3613 1.23047 42.5273C1.37695 37.6445 1.49902 32.7617 1.59668 27.8789L1.81641 18.0645C1.86523 17.5762 1.88965 16.9414 1.88965 16.1602C1.88965 15.3789 1.88965 14.5488 1.88965 13.6699C1.88965 12.5957 1.88965 11.4727 1.88965 10.3008C1.88965 9.12891 1.91406 8.03027 1.96289 7.00488C2.01172 5.97949 2.06055 5.05176 2.10938 4.22168C2.1582 3.3916 2.25586 2.78125 2.40234 2.39062V2.46387C2.59766 1.73145 2.86621 1.19434 3.20801 0.852539C3.5498 0.510742 4.13574 0.339844 4.96582 0.339844C7.0166 0.339844 8.60352 0.950195 9.72656 2.1709C10.8496 3.3916 11.4111 5.02734 11.4111 7.07812C11.4111 10.3496 11.3867 13.6211 11.3379 16.8926C11.3379 20.1152 11.3135 23.3623 11.2646 26.6338C11.2158 29.9053 11.167 33.1768 11.1182 36.4482C11.1182 39.6709 11.1182 42.918 11.1182 46.1895C11.1182 47.3613 11.1182 48.5576 11.1182 49.7783C11.167 50.9502 11.1914 52.1465 11.1914 53.3672C11.2402 54.3438 11.2646 55.3447 11.2646 56.3701C11.2646 57.3955 11.2646 58.4697 11.2646 59.5928L19.1748 46.9951V47.0684L19.834 45.75C19.9805 45.5059 20.0537 45.335 20.0537 45.2373C20.1025 45.1396 20.1514 45.0176 20.2002 44.8711C20.2979 44.6758 20.4688 44.3828 20.7129 43.9922C21.0059 43.6016 21.4941 43.0156 22.1777 42.2344C22.4219 41.9902 22.7148 41.7705 23.0566 41.5752C23.3984 41.3799 23.8379 41.2822 24.375 41.2822C24.9121 41.2822 25.4492 41.4531 25.9863 41.7949C26.5723 42.0879 27.085 42.4785 27.5244 42.9668C27.9639 43.4551 28.3301 43.9922 28.623 44.5781C28.916 45.1641 29.0625 45.7012 29.0625 46.1895C29.0625 46.5801 28.8428 47.2637 28.4033 48.2402C27.9639 49.168 27.3779 50.3154 26.6455 51.6826C25.9619 53.0498 25.1807 54.5391 24.3018 56.1504C23.4229 57.7129 22.4951 59.2998 21.5186 60.9111C20.5908 62.5225 19.6875 64.085 18.8086 65.5986C17.9297 67.1123 17.1484 68.4551 16.4648 69.627L14.5605 72.7031C15.6836 74.6562 16.9775 76.8291 18.4424 79.2217C19.9561 81.5654 21.543 83.9336 23.2031 86.3262C24.8633 88.7188 26.5479 91.0137 28.2568 93.2109C30.0146 95.4082 31.7236 97.3369 33.3838 98.9971L34.1162 99.583C34.7021 100.022 35.3125 100.56 35.9473 101.194C36.582 101.78 36.8994 102.415 36.8994 103.099Z" fill="black"/>
</svg>
