<svg viewBox="0 0 20 110" xmlns="http://www.w3.org/2000/svg">
<path d="M19.3652 106.124C19.3652 106.808 19.1943 107.369 18.8525 107.809C18.5107 108.248 18.0713 108.59 17.5342 108.834C17.0459 109.127 16.4844 109.322 15.8496 109.42C15.2637 109.566 14.7266 109.64 14.2383 109.64C12.5293 109.64 11.04 109.151 9.77051 108.175C8.50098 107.198 7.40234 105.929 6.47461 104.366C5.54688 102.853 4.79004 101.119 4.2041 99.166C3.61816 97.1641 3.12988 95.1865 2.73926 93.2334C2.34863 91.2314 2.05566 89.3271 1.86035 87.5205C1.66504 85.665 1.51855 84.0781 1.4209 82.7598C0.981445 78.2188 0.664062 73.6045 0.46875 68.917C0.322266 64.2295 0.249023 59.5908 0.249023 55.001C0.249023 42.4521 0.688477 30.0254 1.56738 17.7207C1.56738 17.5254 1.56738 17.3057 1.56738 17.0615C1.61621 16.8174 1.64062 16.5732 1.64062 16.3291C1.68945 15.3037 1.73828 14.1318 1.78711 12.8135C1.83594 11.4463 1.90918 10.1035 2.00684 8.78516C2.10449 7.4668 2.20215 6.27051 2.2998 5.19629C2.44629 4.07324 2.61719 3.29199 2.8125 2.85254V2.92578C3.00781 2.24219 3.27637 1.72949 3.61816 1.3877C3.95996 1.0459 4.5459 0.875 5.37598 0.875C7.13379 0.875 8.62305 1.46094 9.84375 2.63281C11.0645 3.80469 11.6748 5.26953 11.6748 7.02734C11.6748 7.41797 11.6504 7.80859 11.6016 8.19922C11.6016 8.54102 11.5771 8.88281 11.5283 9.22461C11.4795 9.56641 11.4307 9.9082 11.3818 10.25C11.3818 10.543 11.3818 10.8115 11.3818 11.0557C11.2354 12.96 11.1133 14.8643 11.0156 16.7686C10.9668 18.624 10.8936 20.5039 10.7959 22.4082C10.5518 26.6074 10.3564 30.8066 10.21 35.0059C10.1123 39.1562 10.0635 43.3555 10.0635 47.6035C10.0635 49.4102 10.0879 51.7783 10.1367 54.708C10.1855 57.6377 10.2832 60.8359 10.4297 64.3027C10.5762 67.7207 10.7715 71.2607 11.0156 74.9229C11.3086 78.585 11.6748 82.0762 12.1143 85.3965C12.5537 88.7168 13.0664 91.7197 13.6523 94.4053C14.2871 97.0908 15.0195 99.166 15.8496 100.631C16.2891 100.826 16.7041 101.144 17.0947 101.583C17.5342 101.974 17.9004 102.438 18.1934 102.975C18.5352 103.463 18.8037 103.976 18.999 104.513C19.2432 105.099 19.3652 105.636 19.3652 106.124Z"/>
</svg>
