<svg viewBox="0 0 31 62" fill="none" xmlns="http://www.w3.org/2000/svg">
<path d="M27.6709 6.31348C27.6709 6.89941 27.4512 7.3877 27.0117 7.77832C26.6211 8.16895 26.1328 8.51074 25.5469 8.80371C24.9609 9.04785 24.3506 9.21875 23.7158 9.31641C23.1299 9.41406 22.6416 9.46289 22.251 9.46289C21.665 9.46289 21.1035 9.41406 20.5664 9.31641C20.0293 9.16992 19.4922 9.02344 18.9551 8.87695C18.418 8.73047 17.9053 8.6084 17.417 8.51074C16.9287 8.36426 16.416 8.29102 15.8789 8.29102C15.1465 8.29102 14.4141 8.41309 13.6816 8.65723C12.9492 8.90137 12.29 9.24316 11.7041 9.68262C11.1182 10.1221 10.6299 10.6592 10.2393 11.2939C9.89746 11.9287 9.72656 12.6367 9.72656 13.418C9.72656 14.5898 9.9707 15.7617 10.459 16.9336C10.9473 18.0566 11.582 19.2041 12.3633 20.376C13.1934 21.5479 14.1211 22.7441 15.1465 23.9648C16.2207 25.1367 17.3438 26.333 18.5156 27.5537C19.9316 29.1162 21.3477 30.7031 22.7637 32.3145C24.2285 33.9258 25.5225 35.6104 26.6455 37.3682C27.8174 39.126 28.7695 40.9814 29.502 42.9346C30.2344 44.8877 30.6006 46.9385 30.6006 49.0869C30.6006 50.9424 30.2832 52.6025 29.6484 54.0674C29.0625 55.5322 28.208 56.7773 27.085 57.8027C26.0107 58.8281 24.6924 59.6094 23.1299 60.1465C21.6162 60.7324 19.9561 61.0254 18.1494 61.0254C17.6611 61.0254 16.9043 60.9277 15.8789 60.7324C14.9023 60.5371 13.7793 60.2686 12.5098 59.9268C11.2402 59.5361 9.92188 59.1211 8.55469 58.6816C7.23633 58.2422 6.01562 57.7783 4.89258 57.29C3.81836 56.7529 2.91504 56.2402 2.18262 55.752C1.49902 55.2148 1.15723 54.7266 1.15723 54.2871C1.15723 53.7012 1.42578 53.1152 1.96289 52.5293C2.5 51.8945 3.13477 51.333 3.86719 50.8447C4.59961 50.3076 5.35645 49.8682 6.1377 49.5264C6.96777 49.1846 7.65137 49.0137 8.18848 49.0137C8.9209 49.0137 9.67773 49.1846 10.459 49.5264C11.2891 49.8682 12.1191 50.2588 12.9492 50.6982C13.877 51.1865 14.8047 51.626 15.7324 52.0166C16.709 52.4072 17.71 52.6025 18.7354 52.6025C19.5166 52.6025 19.9561 52.334 20.0537 51.7969C20.2002 51.2598 20.2734 50.6494 20.2734 49.9658C20.2734 48.2568 19.9805 46.6455 19.3945 45.1318C18.8086 43.5693 18.0518 42.0557 17.124 40.5908C16.1963 39.126 15.1221 37.71 13.9014 36.3428C12.6807 34.9268 11.46 33.5352 10.2393 32.168C8.96973 30.8008 7.72461 29.4336 6.50391 28.0664C5.33203 26.6992 4.28223 25.3076 3.35449 23.8916C2.42676 22.4268 1.66992 20.9375 1.08398 19.4238C0.546875 17.9102 0.27832 16.2988 0.27832 14.5898C0.27832 12.4902 0.742188 10.6104 1.66992 8.9502C2.59766 7.24121 3.79395 5.77637 5.25879 4.55566C6.77246 3.33496 8.45703 2.40723 10.3125 1.77246C12.2168 1.08887 14.1211 0.74707 16.0254 0.74707C16.6602 0.74707 17.6367 0.893555 18.9551 1.18652C20.2734 1.43066 21.5674 1.79688 22.8369 2.28516C24.1064 2.77344 25.2295 3.35938 26.2061 4.04297C27.1826 4.72656 27.6709 5.4834 27.6709 6.31348Z"/>
</svg>
