<svg width="33" height="83" viewBox="0 0 33 83" fill="none" xmlns="http://www.w3.org/2000/svg">
<path d="M21.127 80.1689C21.127 80.7061 21.0049 81.1699 20.7607 81.5605C20.5166 81.9023 20.1992 82.1709 19.8086 82.3662C19.4668 82.5615 19.0762 82.6836 18.6367 82.7324C18.2461 82.8301 17.8555 82.8789 17.4648 82.8789C16.9277 82.8789 16.293 82.8057 15.5605 82.6592C14.877 82.5615 14.1934 82.3906 13.5098 82.1465C12.8262 81.9023 12.1914 81.6094 11.6055 81.2676C11.0684 80.877 10.6533 80.4131 10.3604 79.876C10.0674 79.3877 9.79883 78.4844 9.55469 77.166C9.35938 75.7988 9.18848 74.2363 9.04199 72.4785C8.89551 70.6719 8.77344 68.7676 8.67578 66.7656C8.57812 64.7148 8.48047 62.7617 8.38281 60.9062C8.33398 59.0508 8.28516 57.3906 8.23633 55.9258C8.23633 54.4121 8.23633 53.2891 8.23633 52.5566C8.23633 49.1387 8.28516 45.8428 8.38281 42.6689C8.5293 39.4463 8.67578 36.1504 8.82227 32.7812C8.57812 32.7812 8.33398 32.8057 8.08984 32.8545C7.8457 32.9033 7.60156 32.9277 7.35742 32.9277C6.72266 33.0254 6.06348 33.0986 5.37988 33.1475C4.74512 33.1963 4.08594 33.2207 3.40234 33.2207C2.57227 33.2207 1.83984 33.0742 1.20508 32.7812C0.570312 32.4883 0.25293 31.8291 0.25293 30.8037C0.25293 29.583 0.521484 28.6064 1.05859 27.874C1.5957 27.1416 2.2793 26.5801 3.10938 26.1895C3.93945 25.75 4.84277 25.457 5.81934 25.3105C6.7959 25.1152 7.74805 24.9688 8.67578 24.8711C8.82227 24.8711 8.91992 24.8711 8.96875 24.8711C9.01758 24.8223 9.11523 24.7979 9.26172 24.7979C9.31055 24.2119 9.35938 23.5039 9.4082 22.6738C9.45703 21.7949 9.50586 20.8428 9.55469 19.8174C9.60352 18.2061 9.67676 16.4971 9.77441 14.6904C9.87207 12.835 9.96973 11.0771 10.0674 9.41699C10.165 7.70801 10.2871 6.21875 10.4336 4.94922C10.5801 3.63086 10.7266 2.70312 10.873 2.16602C11.1172 1.53125 11.3857 1.01855 11.6787 0.62793C12.0205 0.237305 12.6309 0.0419922 13.5098 0.0419922C15.4629 0.0419922 16.9766 0.676758 18.0508 1.94629C19.125 3.21582 19.6621 4.77832 19.6621 6.63379C19.6621 8.78223 19.5889 10.9307 19.4424 13.0791C19.3447 15.2275 19.2471 17.4004 19.1494 19.5977L18.9297 23.333C20.1504 23.1865 21.3711 22.9668 22.5918 22.6738C23.7637 22.4297 24.9355 22.21 26.1074 22.0146C27.3281 21.8193 28.5 21.7217 29.623 21.7217C30.5996 21.7217 31.3564 21.9902 31.8936 22.5273C32.4307 23.0156 32.6992 23.748 32.6992 24.7246C32.6992 25.7988 32.5039 26.8486 32.1133 27.874C31.7227 28.8994 31.0391 29.6807 30.0625 30.2178H30.1357C29.9404 30.3154 29.3545 30.4619 28.3779 30.6572C27.4014 30.8037 26.2783 30.9502 25.0088 31.0967C23.7881 31.2432 22.5674 31.3896 21.3467 31.5361C20.1748 31.6826 19.2959 31.7803 18.71 31.8291H18.6367C18.5391 34.5635 18.4658 37.2734 18.417 39.959C18.3682 42.5957 18.3438 45.2812 18.3438 48.0156C18.3438 51.7754 18.4414 55.7793 18.6367 60.0273C18.8809 64.2266 19.2715 68.2305 19.8086 72.0391L20.3945 75.335C20.5898 76.165 20.7607 76.9951 20.9072 77.8252C21.0537 78.6064 21.127 79.3877 21.127 80.1689Z"/>
</svg>
