<svg viewBox="0 0 36 59" xmlns="http://www.w3.org/2000/svg">
<path d="M31.7949 9.66016C31.7949 10.1484 31.7461 10.6611 31.6484 11.1982C31.5508 11.7354 31.4531 12.2236 31.3555 12.6631C31.2578 13.2002 31.1602 13.7129 31.0625 14.2012C30.9648 14.6406 30.916 15.0801 30.916 15.5195C30.916 20.0605 30.9893 24.626 31.1357 29.2158C31.3311 33.7568 31.8193 38.3223 32.6006 42.9121C32.8447 44.6699 33.1377 46.3789 33.4795 48.0391C33.8213 49.6992 34.2119 51.3838 34.6514 53.0928L34.7979 53.5322V53.3857C34.9443 53.7275 35.0664 54.0938 35.1641 54.4844C35.3105 54.8262 35.3838 55.1924 35.3838 55.583C35.3838 56.1201 35.2373 56.5596 34.9443 56.9014C34.7002 57.2432 34.3828 57.5117 33.9922 57.707C33.6016 57.9023 33.1621 58.0244 32.6738 58.0732C32.2344 58.1221 31.8193 58.1465 31.4287 58.1465C29.8174 58.1465 28.5234 57.9756 27.5469 57.6338C26.6191 57.2432 25.8623 56.7305 25.2764 56.0957C24.6904 55.4121 24.251 54.6064 23.958 53.6787C23.7139 52.751 23.4941 51.7256 23.2988 50.6025L23.0791 49.2842C22.8838 48.6006 22.7617 47.8682 22.7129 47.0869C22.6641 46.6963 22.6152 46.5254 22.5664 46.5742C22.5664 46.5742 22.542 46.3789 22.4932 45.9883C21.8096 47.209 21.0039 48.5273 20.0762 49.9434C19.1973 51.3105 18.1719 52.6045 17 53.8252C15.877 54.9971 14.6562 55.998 13.3379 56.8281C12.0195 57.6094 10.6035 58 9.08984 58C6.99023 58 5.35449 57.3652 4.18262 56.0957C3.05957 54.8262 2.22949 53.2881 1.69238 51.4814C1.15527 49.626 0.837891 47.7217 0.740234 45.7686C0.642578 43.7666 0.59375 42.0332 0.59375 40.5684C0.59375 35.002 0.764648 29.4844 1.10645 24.0156C1.49707 18.5469 1.91211 13.0537 2.35156 7.53613C2.35156 7.38965 2.35156 7.19434 2.35156 6.9502C2.40039 6.70605 2.4248 6.51074 2.4248 6.36426C2.47363 5.68066 2.52246 5.0459 2.57129 4.45996C2.62012 3.87402 2.74219 3.3125 2.9375 2.77539V2.84863C3.13281 2.06738 3.40137 1.50586 3.74316 1.16406C4.13379 0.822266 4.71973 0.651367 5.50098 0.651367C6.2334 0.651367 6.96582 0.797852 7.69824 1.09082C8.43066 1.33496 9.08984 1.70117 9.67578 2.18945C10.2617 2.62891 10.7256 3.16602 11.0674 3.80078C11.458 4.43555 11.6533 5.14355 11.6533 5.9248C11.6533 6.31543 11.6533 6.7793 11.6533 7.31641C11.6533 7.85352 11.6289 8.31738 11.5801 8.70801C11.5801 9.0498 11.5557 9.48926 11.5068 10.0264C11.5068 10.5146 11.5068 10.9297 11.5068 11.2715C11.1162 15.959 10.8232 20.6221 10.6279 25.2607C10.4326 29.8506 10.335 34.5137 10.335 39.25C10.335 40.5684 10.335 41.8867 10.335 43.2051C10.3838 44.5234 10.5303 45.8418 10.7744 47.1602C12.3857 45.1094 13.7773 42.4971 14.9492 39.3232C16.1211 36.1006 17.0977 32.707 17.8789 29.1426C18.709 25.5293 19.3682 21.9648 19.8564 18.4492C20.3936 14.8848 20.7842 11.7354 21.0283 9.00098C21.0283 8.85449 21.0283 8.68359 21.0283 8.48828C21.0771 8.29297 21.1016 8.12207 21.1016 7.97559C21.1504 7.43848 21.1992 6.92578 21.248 6.4375C21.2969 5.94922 21.4678 5.48535 21.7607 5.0459C21.7607 4.60645 21.7852 4.14258 21.834 3.6543C21.8828 3.16602 22.0049 2.72656 22.2002 2.33594C22.3955 1.89648 22.6641 1.55469 23.0059 1.31055C23.3965 1.06641 23.9336 0.944336 24.6172 0.944336C26.5703 0.944336 28.1084 1.55469 29.2314 2.77539C30.3545 3.94727 30.9648 5.46094 31.0625 7.31641C31.3066 7.70703 31.4775 8.09766 31.5752 8.48828C31.7217 8.83008 31.7949 9.2207 31.7949 9.66016Z"/>
</svg>
