<svg viewBox="0 0 36 72" xmlns="http://www.w3.org/2000/svg">
<path d="M35.1514 66.4365C35.1514 67.0225 34.9316 67.4863 34.4922 67.8281C34.1016 68.1211 33.6377 68.3408 33.1006 68.4873C32.5635 68.6338 32.002 68.7314 31.416 68.7803C30.8301 68.8291 30.3662 68.8535 30.0244 68.8535C29.292 68.8535 28.6328 68.8291 28.0469 68.7803C27.4609 68.7314 26.8994 68.6094 26.3623 68.4141C25.874 68.2188 25.4102 67.9258 24.9707 67.5352C24.5312 67.1445 24.0918 66.6074 23.6523 65.9238C22.8223 64.4102 22.041 62.8477 21.3086 61.2363C20.625 59.625 19.9414 58.0381 19.2578 56.4756C18.916 55.5967 18.623 54.8887 18.3789 54.3516C18.1836 53.8145 17.8906 53.1309 17.5 52.3008C16.4258 55.084 15.3271 57.7939 14.2041 60.4307C13.1299 63.0674 12.0068 65.7041 10.835 68.3408C10.4932 69.0244 10.1025 69.6836 9.66309 70.3184C9.27246 71.002 8.56445 71.3438 7.53906 71.3438C7.00195 71.3438 6.34277 71.1729 5.56152 70.8311C4.8291 70.5381 4.09668 70.123 3.36426 69.5859C2.68066 69.0977 2.07031 68.5361 1.5332 67.9014C1.04492 67.2666 0.800781 66.6318 0.800781 65.9971C0.800781 65.5088 0.898438 65.0205 1.09375 64.5322C1.28906 63.9951 1.50879 63.4824 1.75293 62.9941H1.67969C3.53516 58.9902 5.26855 55.0596 6.87988 51.2021C8.54004 47.2959 10.1758 43.3652 11.7871 39.4102C11.4453 38.6289 10.957 37.4326 10.3223 35.8213C9.73633 34.21 9.07715 32.4277 8.34473 30.4746C7.6123 28.5215 6.85547 26.4707 6.07422 24.3223C5.29297 22.1738 4.58496 20.1719 3.9502 18.3164C3.36426 16.4121 2.85156 14.752 2.41211 13.3359C2.02148 11.8711 1.82617 10.8457 1.82617 10.2598C1.82617 9.2832 2.11914 8.67285 2.70508 8.42871C3.33984 8.13574 4.04785 7.98926 4.8291 7.98926C6.3916 7.98926 7.73438 8.30664 8.85742 8.94141C10.0293 9.57617 10.9326 10.6504 11.5674 12.1641C11.8115 12.7988 12.0557 13.4824 12.2998 14.2148C12.5928 14.8984 12.8369 15.582 13.0322 16.2656L13.6914 18.0967C14.2773 19.6592 14.79 21.0752 15.2295 22.3447C15.7178 23.6143 16.3037 25.0059 16.9873 26.5195C18.208 23.3945 19.3311 20.1719 20.3564 16.8516C21.4307 13.4824 22.2119 10.1133 22.7002 6.74414L22.9199 4.7666C22.9199 4.08301 23.0176 3.35059 23.2129 2.56934C23.457 1.88574 23.7256 1.37305 24.0186 1.03125C24.3604 0.689453 24.9463 0.518555 25.7764 0.518555C26.5576 0.518555 27.3145 0.640625 28.0469 0.884766C28.7793 1.12891 29.4385 1.49512 30.0244 1.9834C30.6104 2.42285 31.0742 2.98438 31.416 3.66797C31.8066 4.30273 32.002 5.05957 32.002 5.93848C32.002 7.30566 31.8311 8.91699 31.4893 10.7725C31.1963 12.5791 30.7812 14.5078 30.2441 16.5586C29.707 18.5605 29.0967 20.6357 28.4131 22.7842C27.7783 24.9326 27.0947 27.0322 26.3623 29.083C25.6787 31.085 24.9951 32.9893 24.3115 34.7959C23.6768 36.5537 23.1152 38.0918 22.627 39.4102L27.0947 48.8584C27.9736 50.7139 28.877 52.6426 29.8047 54.6445C30.7812 56.6465 31.6602 58.502 32.4414 60.2109C33.2227 61.8711 33.8574 63.2871 34.3457 64.459C34.8828 65.6309 35.1514 66.29 35.1514 66.4365Z"/>
</svg>
